<?xml version="1.0" encoding="UTF-8"?>
<svg id="Camada_1" data-name="Camada 1" xmlns="http://www.w3.org/2000/svg" viewBox="0 0 1311.26 1256.43">
  <defs>
    <style>
      .cls-1 {
        fill: #ffa1eb;
      }

      .cls-1, .cls-2 {
        stroke-width: 0px;
      }

      .cls-2 {
        fill: #53c2c4;
      }
    </style>
  </defs>
  <path class="cls-2" d="M1001.61,722.45c17.86,1.81,39.16-3.8,59.98,3.45,44.37,15.46,70.09,56.55,63.93,102.93-5.96,44.88-43.53,78.54-90.49,80.3-19.68.74-39.43.66-59.11-.04-11.68-.42-18.7,2.74-25.36,13.66-136.95,224.6-443.66,224.51-579.06-.1-5.94-9.86-12-13.81-23.21-13.38-19.68.76-39.42.59-59.12.13-53.84-1.24-93.86-42.92-93.19-96.65.64-50.87,40.63-89.81,93.19-90.36,26.53-.28,53.11.95,79.58-.28,15.88-.74,18.14,5.08,17.64,19.54-3.56,104.08,36.69,188.1,122.88,246.3,78.71,53.15,166.51,62.7,253.5,25.86,110-46.58,175.69-137.31,173.57-268.98-.28-17.55,2.71-24.69,21.23-22.67,13.48,1.47,27.26.29,44.04.29ZM305.95,851.62q33.18-.18,26.94-31.57c-.87-4.41-1.59-9.01-1.33-13.46,1.42-24.52-10.23-33.19-33.58-28.6-3.64.71-7.54-.07-11.27.29-20.2,1.97-35.11,18.12-34.74,37.46.38,19.98,14.99,34.68,35.91,35.86,6.01.34,12.05.05,18.08.03ZM1013.99,851.62c6.82,0,13.65.14,20.47-.03,19.53-.46,31.32-11.06,34.66-29.58,3.54-19.66-4.91-34.75-23.65-41.47-15.14-5.43-32.48-5.44-47-.76-11.97,3.86-3.63,20.43-7.78,30.61-1.4,3.42-1.42,7.41-2.06,11.14q-5.07,29.73,25.36,30.09Z"/>
  <polygon class="cls-1" points="651.52 539.98 651.52 978.45 621.69 978.45 588.13 950.28 541.78 958.5 500.09 923.28 470.74 897.45 443.74 876.32 443.74 808.24 436.41 770.67 421.44 721.83 436.41 679.11 475.44 645.06 483.65 606.32 523.57 569.93 556.44 567.58 596.24 521.8 651.52 539.98"/>
  <path class="cls-2" d="M911.66,733.05c.65,9.65-.2,22.82-5.98,34.41-13.41,26.91-20.85,52.18-10.7,83.99,8.22,25.75-17.4,57.54-46.88,70.61-6.65,2.95-12.45,4.22-16.34,12.87-15.43,34.28-36.16,45.25-74.41,40.44-12.88-1.62-22.39-1.35-31.18,10.58-7.84,10.64-23.37,17.74-34.43,13.51-32.3-12.33-71.06,16.86-98.6-15.48-8.6-10.1-16.59-10.03-27.42-8.62-39.53,5.15-58.34-4.81-76.14-40.8-3.43-6.94-8.18-9.04-14.68-11.81-41.84-17.81-58.44-55.58-42.95-98.5,3.7-10.26,2.8-17.01-3.11-26.35-27.5-43.4-26.35-98.34,1.88-129.32,6.03-6.62,13.17-13.08,21.11-16.89,12.26-5.89,17.26-13.14,17.38-27.56.3-36.87,23.13-60.64,60.19-64,10.64-.97,16.99-3.62,23.39-13.11,25.44-37.72,63.3-44.17,101.38-18.17,5.67,3.87,7.8,3.1,13.03-.54,35.81-24.94,74.13-19.15,98.66,15.64,7.58,10.75,14.92,15.44,28.59,16.56,34.56,2.83,55.71,26.27,57.11,61.95.57,14.45,4.92,22.37,18.17,29.59,29.96,16.32,42.37,43.93,41.94,81ZM842.14,890.6c25.78-10.89,33.08-35.13,18.88-63.67-6.05-12.15-13.86-23.42-20.92-35.07-2.57-4.24-3.64-8.86-.03-12.57,3.8-3.9,8.69-5.75,14.52-3.55,5.24,1.97,7.42,9.37,14.66,8.65,13.75-22.81,17.65-46.89,13.58-72.42-3.15-19.8-15.99-31.97-32.88-40.74-14.88-7.72-18.36,9.65-28.26,13.01-2.79.95-5.13,3.18-7.77,4.67-7.37,4.16-14.84,5.17-19.9-2.91-4.79-7.65-2.37-14.23,5.26-19.27,8.88-5.86,17.22-12.33,22.05-22.36,9.27-19.25,3.1-41.1-14.75-51.39-19.11-11.01-30.75-7.16-43.88,14.05-2.73,4.42-6.12,8.73-10.11,11.98-4.39,3.58-9.79,3.5-14.85.24-5.41-3.48-6.1-9.08-4.5-14.06,1.8-5.62,5.84-10.48,8.39-15.91,10.83-23.05-.76-44.58-26.05-48.66-28.36-4.57-43.07,14.62-39.5,52.41,3.41-2.19,6.49-4.22,9.62-6.16,8.8-5.45,18.63-15.03,27.51-2.81,9.13,12.56-2.74,18.09-11.61,24.27-17.39,12.1-25.64,30.47-27.17,50.37-1.94,25.33-.47,50.92-.47,77.87,13.4-3.57,18.82-10.71,20.7-22.48,3.71-23.12,17.94-39.49,36.66-52.35,7.24-4.98,15.84-8.79,22.29-.4,7.14,9.29,1.87,16.61-6.9,22.39-10.77,7.1-20.2,15.5-23.39,31.23,11.06,0,20.68-.42,30.23.13,7.79.45,12.72,5.16,12.71,13.2,0,7.9-4.45,12.71-12.49,13.36-6.04.49-12.15.1-18.17.72-44.87,4.61-65.59,29.01-60.13,71.69,29.26-10.93,60.47-13.32,90.03-22.37,23.49-7.19,40.72-20.54,39.66-48.26-.38-9.8,3.4-17.17,13.45-17.11,9.82.06,14.38,7.5,14.29,17.07-.26,26.46-7.7,49.67-32.67,62.99-11.8,6.29-24.71,10.48-37.67,15.84,8.43,14.1,17.88,28.07,18.5,45.43.27,7.52-2.71,13.76-10.54,15.41-7.98,1.68-12.75-2.62-14.87-10.36-1.8-6.55-2.96-13.6-6.28-19.35-8.62-14.94-18.48-27.21-39.62-21.79-31.95,8.18-36.51,11.95-36.51,38.35,0,28.04-.18,56.09.11,84.13.17,16.22,12.32,23.15,26.99,15.97,8.16-3.99,11.78-11.38,14.79-19.27,5.05-13.22,4.56-26.67,1.84-40.26-1.8-9,2.14-15.25,10.89-16.73,7.84-1.32,12.61,3.71,14.58,11.19,2.33,8.82,5.32,17.99,2.45,26.82-4.31,13.26,3.09,15.15,13.19,16.8,26.35,4.3,43.33-6.05,51.56-32.59,5.48-17.65,5.34-35.83,3.61-53.98-.71-7.47-2.73-14.91,8.01-16.55,10.68-1.64,15.43,4.19,16.82,13.73,1.52,10.37,2.7,20.8,4.05,31.4ZM644.92,590.82c3.39-10.28.73-18.95-2.22-27.59-6.96-20.39-23.97-28.19-45.25-20.72-18.05,6.33-26.48,26.02-18.72,44.46,2.62,6.24,6.81,11.87,9.01,18.22,2.17,6.28-.03,11.99-6.34,15.29-5.45,2.84-10.95,1.75-14.42-2.69-5.07-6.49-9.47-13.63-13.24-20.96-2.93-5.7-5.35-10.28-13.08-10.01-16.94.61-31.68,5.5-40.2,21.05-8.55,15.59-6,31.01,5.01,44.47,4.7,5.74,11.18,10.1,17.16,14.7,6.3,4.84,8.62,10.91,4.91,17.83-4.57,8.54-12.16,8.16-19.55,4.05-5.93-3.3-12.33-6.61-16.77-11.5-9.19-10.12-17.41-8.49-27.69-1.63-28.05,18.71-36.55,76.61-14.97,102.6,5.93,7.14,10.06,3.36,15.22-.05,5.52-3.65,11.54-4.88,16.48.57,5.01,5.54,2.19,11.27-1.13,16.62-5.58,9.02-11.32,17.93-16.71,27.06-9.41,15.94-11.08,33.05-5.07,50.29,3.03,8.68,9.71,18.22,19.16,17,10.26-1.32,3.41-12.5,5.17-19.09,1.55-5.8,1.46-12.1,3.45-17.7,2.34-6.54,8.05-8.66,14.83-7.17,5.86,1.29,9.6,5.08,9.57,11.02-.03,5.99-1.55,11.97-1.96,17.98-1.51,22.42.92,43.99,15.92,62.11,12.57,15.19,29.22,14.4,45.94,9.93,15.77-4.22,4.07-16.47,6.2-24.75.94-3.66,1.46-7.44,1.97-11.19,1.36-9.95,5.14-18.75,16.85-16.52,10.37,1.98,11.1,10.65,9.08,19.88-3.73,17.06-.99,33.32,8.52,47.94,6.07,9.34,15.39,11.4,26.04,8.83,10.7-2.58,8.42-11.1,8.46-18.29.16-30.32-.37-60.65.31-90.95.28-12.47-4.43-19.28-15.79-24.17-34.28-14.74-51.83-7.16-63.33,28.63-2.84,8.82-5.24,19.17-17.61,15.96-11.97-3.1-9.69-13.71-8.65-22.7,1.61-13.86,11.01-24.56,16.66-37.92-11.11-4.23-21.91-7.47-31.94-12.33-25.57-12.4-40.01-38.02-37.48-64.71.83-8.8,2.71-17.37,13.53-17.73,11.04-.36,13.5,7.57,13.53,16.89.1,27.3,16.63,41.44,40.6,47.8,29.15,7.74,58.72,13.9,88.13,20.74,5.62-38.25-3.1-53.17-38.41-65.42-9.31-3.23-18.88-5.28-28.95-5.01-9.85.27-21.5,1.19-21.62-13.26-.12-14.27,11.26-13.42,21.28-13.98,6.36-.35,15.54,3,18.13-4.18,2.8-7.75-5.2-13.38-10.41-18.68-3.16-3.21-6.93-5.86-10.59-8.54-7.3-5.35-13.14-11.54-6.68-20.73,6.33-9.01,14.34-6.23,21.91-1.21,19.77,13.11,33.88,30.44,37.99,54.26,1.9,10.99,5.92,18.1,19.6,18.22,0-25.65.96-50.66-.31-75.56-.95-18.65-8.93-34.99-23.62-47.52-7.94-6.77-24.35-10.87-14.93-25.35,10.25-15.76,20.85-1.29,30.91,3.41,1.32.62,2.79.91,6.07,1.96Z"/>
  <path class="cls-1" d="M742.1,287.62c10.55.68,21.29.37,31.62,2.27,18.04,3.32,28.04,15.17,27.65,33.45-.41,19.04-13.57,31.44-30.42,30.24-28.2-2-29.36,11.81-28.7,33.53,1.38,44.93.57,44.61,41.15,61.36,93.34,38.52,156.95,105.64,192.33,200.12,5.64,15.07,2.97,20.29-13.68,20.61-37.89.72-36.12.41-53.61-32.92-48.7-92.78-125.07-147.64-230.71-152.76-127.02-6.16-217.17,52.42-271.64,166.77-7.46,15.66-46.59,26.95-60.28,17.09-9.06-6.52-1.67-14.25.58-20.32,35.98-97.18,102.08-165.74,199.63-200.72,26.28-9.43,37.17-20.91,32.16-47.73-1.09-5.86-.84-12.19-.03-18.14,2.49-18.31-1.54-27.76-23.59-26.41-21.5,1.31-35.74-14.46-35.24-33.15.5-18.55,15.05-31.56,36.69-32.55,6.81-.31,13.66.23,20.46-.13,11.75-.63,17.2,1.08,15.73,16.31-3.8,39.47,19.48,64.89,55.52,64.18,36.18-.72,57.83-25.9,54.32-65.14-1.17-13.07,3.72-16.07,15.02-15.43,8.31.47,16.67.09,25.01.09l.04-.61Z"/>
  <path class="cls-2" d="M610.57,312.42c.35-19.53,16.86-35.01,37.07-34.76,20.54.25,35.48,15.54,35.18,36.02-.28,19.58-17.05,35.87-36.44,35.42-19.14-.44-36.14-17.86-35.8-36.68Z"/>
  <path class="cls-2" d="M720.03,234.22c-.86,16.56-9.79,25.96-26.75,26.82-16.28.82-29.24-11.98-28.98-27.78.25-15.26,14.5-29.44,29.48-27.79,16.26,1.79,25.72,11.2,26.25,28.76Z"/>
  <path class="cls-2" d="M647.15,209.11c-2.78,15.54-10.58,25.94-26.84,25.38-14.83-.51-23.89-9.66-24.07-24.6-.2-16.54,10.45-25.02,25.88-24.94,14.9.08,22.38,10.34,25.03,24.16Z"/>
  <path class="cls-2" d="M705.58,182.71c-12.02-1.38-19.05-8.03-18.84-20.57.22-13.59,8.11-21.07,21.37-20.56,12.22.47,19.62,8.6,19.52,20.57-.11,13.23-8.17,20.33-22.05,20.56Z"/>
</svg>